<?xml version="1.0" encoding="utf-8"?>
<!-- Generator: Adobe Illustrator 18.1.1, SVG Export Plug-In . SVG Version: 6.00 Build 0)  -->
<svg version="1.1" id="Layer_1" xmlns="http://www.w3.org/2000/svg" xmlns:xlink="http://www.w3.org/1999/xlink" x="0px" y="0px"
	 viewBox="0 0 3000 3000" enable-background="new 0 0 3000 3000" xml:space="preserve">
<g>
	<rect fill="#002855" width="3000" height="3000"/>
	<g>
		<path fill="#00418A" d="M2047.6,1285.9H952.4c0.3-16.6,2.1-32.7,5.3-48.4c1.9-9.2,4.2-18.3,7-27.1
			c34-107.7,134.8-185.8,253.8-185.8V834.8h563.1v189.7c119,0,219.7,78.1,253.8,185.8C2042.9,1234.2,2047.1,1259.6,2047.6,1285.9z"
			/>
		<ellipse fill="#001936" cx="1500" cy="2410.8" rx="710.5" ry="139.9"/>
		<path fill="#00BAFF" d="M2047.6,1290.6v854c0,147-119.1,266.1-266.1,266.1h-563.1c-147,0-266.1-119.1-266.1-266.1v-854
			c0-18.2,1.8-36,5.3-53.2c1.9-9.2,4.2-18.3,7-27.1c11-0.9,23.2-1.4,37-1.4c124.6,0,124.6,42,249.2,42c124.6,0,124.6-42,249.1-42
			s124.6,42,249.2,42c124.6,0,124.6-42,249.2-42c13.7,0,26,0.5,37,1.4C2043.3,1235.7,2047.6,1262.6,2047.6,1290.6z"/>
		<g>
			<circle fill="#70D8FF" cx="1307.8" cy="2306" r="45"/>
			<circle fill="#70D8FF" cx="1664.8" cy="2261" r="33"/>
			<circle fill="#70D8FF" cx="1835.9" cy="2297" r="18"/>
			<circle fill="#70D8FF" cx="1115.8" cy="2246" r="18"/>
			<circle fill="#70D8FF" cx="1220.8" cy="1375.9" r="30"/>
			<circle fill="#70D8FF" cx="1538.8" cy="1345.9" r="27"/>
			<circle fill="#70D8FF" cx="1918" cy="1372.9" r="27"/>
			<circle fill="#70D8FF" cx="1028.8" cy="1303.9" r="18"/>
			<circle fill="#70D8FF" cx="1424.8" cy="1445.1" r="28.7"/>
			<circle fill="#70D8FF" cx="1724.9" cy="1416.4" r="40.5"/>
		</g>
		<path opacity="0.5" fill="#FFFFFF" d="M1046.8,2203.7L1046.8,2203.7c-20.8,0-37.7-16.9-37.7-37.7V1289c0-20.8,16.9-37.7,37.7-37.7
			h0c20.8,0,37.7,16.9,37.7,37.7v877.1C1084.5,2186.9,1067.6,2203.7,1046.8,2203.7z"/>
		<path fill="#F1F2F2" d="M2093,1416.4v728.3c0,1.1,0,2.3,0,3.4c-391,74.2-795,74.2-1186,0c0-1.1,0-2.3,0-3.4v-728.3
			C1294.5,1518.2,1705.5,1518.2,2093,1416.4z"/>
		<g>
			<path fill="#3077A1" d="M1781.5,834.8v189.7c81.8,0,155,36.9,203.8,95c22.2,26.4,39.4,57.2,50,90.8c7.6,23.9,11.8,49.2,12.3,75.5
				c0,1.6,0,3.2,0,4.8v854c0,1.1,0,2.3,0,3.4c-1.8,145.4-120.3,262.7-266.1,262.7h-563.1c-117.8,0-217.8-76.6-252.8-182.8
				c-8.3-25.2-12.9-52-13.3-79.9c0-1.2,0-2.3,0-3.4v-854c0-1.6,0-3.2,0-4.8c0.3-16.5,2.1-32.7,5.3-48.4c1.9-9.2,4.2-18.3,7-27.1
				c34-107.7,134.8-185.8,253.7-185.8V834.8H1781.5 M1830,786.3h-48.5h-563.1H1170v48.5v144.9c-17.7,2.7-35.1,7-52.1,12.7
				c-31.3,10.5-60.6,25.9-87.1,45.7c-26.2,19.5-49.2,42.9-68.2,69.5c-19.3,26.9-34.1,56.5-44.1,88h0c-3.3,10.4-6.1,21.3-8.4,32.2
				c-3.8,18.7-5.9,37.9-6.2,57c0,1.7-0.1,3.5-0.1,5.8v854c0,1.2,0,2.7,0,4.2c0.4,32.2,5.7,63.9,15.7,94.3
				c10.2,31,25.2,60.2,44.6,86.7c19.1,26.2,42,49.2,68.1,68.3c26.4,19.4,55.5,34.5,86.5,44.9c32.1,10.7,65.6,16.1,99.6,16.1h563.1
				c42.1,0,83-8.2,121.6-24.4c37.2-15.6,70.7-38,99.5-66.4c28.8-28.5,51.5-61.7,67.6-98.7c16.6-38.3,25.3-79,25.9-121.1l0-0.1l0-0.1
				c0-1.3,0-2.6,0-3.9v-854c0-2.1,0-4,0-5.7c-0.5-30.4-5.4-60.4-14.5-89.2c-12.5-39.5-32.4-75.6-59.1-107.4
				c-49.4-58.8-117.8-96.9-192.4-108.5v-145V786.3L1830,786.3z"/>
		</g>
		<g>
			<g>
				<path fill="#231F20" d="M1107.8,1762.8c-9.9-1.7-20.2-5.6-26.8-13.4c-6.5-7.7-8.7-18.3-8.5-28.3c0-19.8,0-39.6,0-59.3
					c0.8-9.1,1-20.3,8.8-26.6c7.9-6.4,19.1-4.6,28.3-3.7c22.3,3.8,44.7,7.4,67.1,10.6c0,10.5,0,15.7,0,26.2
					c-19.9-2.9-39.8-6-59.6-9.3c-7.4-1.3-11.2,1.8-11.2,9.3c0,19.9,0,39.8,0,59.7c0,2.9,0.8,5.3,2.5,7.2c1.7,2,3.9,3.2,6.8,3.7
					c2.4,0.4,5.1,0.9,8.2,1.4c3.1,0.5,6.3,1.1,9.7,1.6c3.4,0.5,6.7,1.1,10.2,1.6c3.4,0.5,6.7,0.5,10,0c7.6,1.2,15.4,2.3,23.5,3.5
					c0,9.8,0,14.7,0,24.5c-8.3,0.4-16.6,0-24.8-1.3c-7.1-1.1-14.6-2.3-22.5-3.6C1121.6,1765.1,1114.4,1763.9,1107.8,1762.8z"/>
				<path fill="#231F20" d="M1309.7,1752.6c0.2,9.7-1.6,21.1-8.9,27.8c-7.3,6.7-18.9,7.4-28.6,6.2c-15.6-1.6-31.2-3.3-46.8-5.2
					c-10.4-1.1-21.5-4.6-28.5-12.5c-7-7.9-9-19.3-8.9-29.8c0-20,0-40,0-59.9c0.8-9.4,1.1-20.6,8.9-27.4c7.8-6.8,19-5.6,28.5-5.3
					c15.6,1.9,31.2,3.6,46.8,5.2c10.3,0.9,21.5,3.9,28.6,11.6c7,7.6,9.1,19,8.9,29.3C1309.7,1712.7,1309.7,1732.7,1309.7,1752.6z
					 M1275.9,1689.6c0-7.5-3.7-11.6-11.2-12.4c-10.6-1.1-21.2-2.3-31.8-3.5c-7.5-0.9-11.2,2.4-11.2,9.9c0,20,0,40,0,59.9
					c0,7.5,3.7,11.7,11.2,12.6c10.6,1.3,21.2,2.4,31.8,3.5c7.5,0.8,11.2-2.6,11.2-10.1C1275.9,1729.6,1275.9,1709.6,1275.9,1689.6z"
					/>
				<path fill="#231F20" d="M1380.1,1753.7c10.7-30.1,21.3-60.2,32-90.3c12.2,0.5,24.4,0.8,36.7,1.1
					c-16.6,43.2-33.2,86.3-49.8,129.4c-12.5-0.6-25.1-1.2-37.6-2c-16.6-44.9-33.2-89.8-49.8-134.7c12.2,1,24.4,1.9,36.6,2.7
					C1358.8,1691.2,1369.5,1722.5,1380.1,1753.7z"/>
				<path fill="#231F20" d="M1520.2,1796.1c-22.6,0.1-45.1,0-67.7-0.4c0-10.5,0-15.7,0-26.2c6.8,0.1,10.2,0.2,16.9,0.3
					c0-26.2,0-52.4,0-78.7c-6.8-0.1-10.2-0.1-16.9-0.3c0-10.5,0-15.7,0-26.2c22.6,0.4,45.1,0.5,67.7,0.4c0,10.5,0,15.7,0,26.2
					c-6.8,0.1-10.2,0.1-16.9,0.1c0,26.2,0,52.4,0,78.7c6.8,0,10.2,0,16.9-0.1C1520.2,1780.3,1520.2,1785.6,1520.2,1796.1z"/>
				<path fill="#231F20" d="M1610.5,1662.4c11.3-0.8,23.8,1.3,32.2,9.2c8.4,7.8,11.2,20.1,11,31.4c0,15,0,30,0,44.9
					c0.2,11.8-2.8,24.2-11,32.8c-8.2,8.7-20.4,12.4-32.2,12.7c-24.4,1.1-48.9,1.9-73.3,2.4c0-43.7,0-87.4,0-131.1
					C1561.6,1664.3,1586,1663.5,1610.5,1662.4z M1619.9,1705c0-11.2-5.6-16.5-16.9-16c-10.6,0.5-21.3,0.9-32,1.2
					c0,26.2,0,52.4,0,78.7c10.7-0.3,21.3-0.7,32-1.2c11.3-0.5,16.9-6.4,16.9-17.7C1619.9,1735,1619.9,1720,1619.9,1705z"/>
				<path fill="#231F20" d="M1666.8,1737.6c0-10.5,0-15.7,0-26.2c25.7-2,51.3-4.3,76.9-6.9c0,10.5,0,15.7,0,26.2
					C1718.1,1733.4,1692.5,1735.7,1666.8,1737.6z"/>
				<path fill="#231F20" d="M1772.7,1779.8c0-34,0-68,0-102.1c-8.6,4-12.9,6-21.5,10c-3.7-8.2-5.6-12.3-9.4-20.5
					c11.6-6.2,23.1-12.6,34.6-18.9c10-1.2,20-2.5,29.9-3.9c0,43.7,0,87.4,0,131.1C1795.2,1777,1784,1778.4,1772.7,1779.8z"/>
				<path fill="#231F20" d="M1894,1711.3c-3.6,1.4-7.3,2.6-11,3.8c-3.2,1-6.7,2.1-10.3,3c-3.7,1-7.1,1.7-10.3,2.2
					c-5.2,0.8-7.8,1.3-13,2.1c-8.5,1.3-15.2-0.2-20.3-4.6c-5.1-4.4-7.7-10.8-7.7-19.3c0-9.7,0-14.6,0-24.3
					c-0.5-8.6,2.6-20.1,8.6-26.6c6.9-7.4,17-11,26.9-12.4c11.8-1.9,23.6-3.8,35.4-5.9c12.2-2.1,21.1-1,26.8,3.5
					c5.7,4.5,8.5,12.3,8.5,23.7c0,21.8,0,43.5,0,65.3c0.1,10-2,20.7-8.5,28.5c-6.5,7.8-16.9,11.8-26.8,13.4c-6,1-12.7,2.2-19.8,3.4
					c-7.1,1.2-13.8,1.7-20,1.5c-7.2,1.1-14.4,1.7-21.6,1.8c0-10.1,0-15.2,0-25.3c6.8-0.3,13.6-0.6,20.3-1c5.7-0.9,11.6-1.8,17.8-2.8
					c6.1-1,11.5-1.9,15.9-2.7c2.9-0.5,5.1-1.7,6.8-3.6c1.7-1.9,2.5-4.3,2.5-7.1C1894,1721.1,1894,1717.9,1894,1711.3z M1894,1666.3
					c0-7.5-3.7-10.6-11.2-9.3c-6.7,1.1-10.1,1.7-16.8,2.8c-7.5,1.2-11.2,5.5-11.2,12.9c0,6.3,0,9.4,0,15.7c0,1.9,0.6,3.3,1.9,4.3
					c1.2,1,2.8,1.4,4.7,1.1c4.1-0.7,6.1-1,10.2-1.7c2.5-0.4,5.1-0.8,7.8-1.3c2.7-0.5,5.2-1,7.3-1.7c2.4-0.7,4.9-1.5,7.3-2.4
					C1894,1678.7,1894,1674.6,1894,1666.3z"/>
				<path fill="#231F20" d="M1199.2,1961.7c10.6-29.2,21.2-58.5,31.8-87.8c12.2,1.4,24.3,2.8,36.5,4c-16.5,41.8-33,83.7-49.6,125.5
					c-12.5-1.6-24.9-3.2-37.4-5c-16.5-46.2-33-92.4-49.4-138.6c12.1,2,24.2,3.9,36.4,5.7C1178,1897.5,1188.6,1929.6,1199.2,1961.7z"
					/>
				<path fill="#231F20" d="M1290.9,2013.2c-8.5-0.8-15.3-4-20.4-9.7c-5.1-5.6-7.7-12.7-7.7-21.2c0-3.4,0-5.1,0-8.4
					c0-8.5,2.6-15,7.7-19.6c5.1-4.6,11.9-6.5,20.4-5.7c12.8,1.2,25.6,2.2,38.5,3.2c0-2.9,0-4.3,0-7.2c0-1.8-0.6-3.3-1.9-4.6
					c-1.3-1.3-2.8-2-4.7-2.2c-5-0.4-10.4-0.8-16.2-1.3c-5.8-0.5-11.3-0.7-16.4-0.6c-6,0.2-12,0-18-0.6c0-9.2,0-13.9,0-23.1
					c6.9-0.4,13.9-0.2,21,0.4c6.1-0.6,12.8-0.6,20.1,0c7.3,0.6,14.2,1.1,20.8,1.6c8.5,0.6,15.3,3.6,20.5,9
					c5.1,5.4,7.7,12.3,7.7,20.8c0,24.2,0,48.4,0,72.6c-9.7-0.6-19.4-1.2-29.1-1.9c-0.8-3.8-1.1-5.7-1.9-9.5
					c-3.3,1.9-6.8,3.5-10.5,4.8c-3.3,1.1-6.9,2.1-10.9,3c-4,0.9-8.1,1.1-12.4,0.7C1294.9,2013.5,1293.6,2013.4,1290.9,2013.2z
					 M1306.9,1988.4c2.4,0.2,4.9,0.2,7.5,0.1s5.1-0.4,7.3-0.7c2.6-0.3,5.2-0.7,7.7-1.3c0-4.5,0-6.7,0-11.2
					c-10.9-0.8-16.3-1.3-27.2-2.2c-1.9-0.2-3.4,0.3-4.7,1.5c-1.3,1.1-1.9,2.6-1.9,4.5c0,0.7,0,1.1,0,1.9c0,1.9,0.6,3.5,1.9,4.9
					c1.2,1.4,2.8,2.1,4.7,2.3C1304.1,1988.1,1305,1988.2,1306.9,1988.4z"/>
				<path fill="#231F20" d="M1377.3,1948.1c0-9.3,2.7-16.5,8-21.5c5.3-5,12.7-7.3,22.1-6.9c20,0.8,40.1,1.4,60.2,1.7
					c0,10.1,0,15.2,0,25.3c-16.6-0.2-33.2-0.7-49.8-1.3c-5-0.2-7.5,2.2-7.5,7.2c0,12.1,0,24.2,0,36.3c0,1.9,0.6,3.4,1.9,4.7
					c1.3,1.3,2.8,2,4.7,2c4.9,0.2,10.3,0.4,16.2,0.5c5.9,0.2,11.4,0.1,16.5-0.2c6-0.4,12-0.9,18.1-1.4c0,9.7,0,14.6,0,24.3
					c-7,0.9-14.1,1.3-21.3,1.1c-6.1,1-12.8,1.4-20,1.1c-7.2-0.2-14.1-0.5-20.8-0.8c-8.5-0.4-15.4-3.2-20.5-8.6
					c-5.1-5.4-7.7-12.3-7.7-20.7C1377.3,1976.7,1377.3,1962.4,1377.3,1948.1z"/>
				<path fill="#231F20" d="M1480.7,1951.4c0-9.3,2.7-16.6,8-21.8c5.3-5.3,12.7-7.9,22.1-7.9c20.1-0.1,40.1-0.5,60.2-1.1
					c0,10.1,0,15.2,0,25.3c-16.6,0.5-33.2,0.8-49.8,1c-5,0-7.5,2.5-7.5,7.5c0,12.1,0,24.2,0,36.3c0,1.9,0.6,3.4,1.9,4.6
					c1.3,1.2,2.8,1.8,4.7,1.8c4.9,0,10.3-0.1,16.2-0.2c5.9-0.1,11.4-0.4,16.6-1c6-0.7,12-1.5,18.1-2.3c0,9.7,0,14.6,0,24.3
					c-7,1.2-14.1,1.9-21.3,2.1c-6.1,1.3-12.8,1.9-20,2c-7.2,0.1-14.1,0.2-20.8,0.2c-8.5,0-15.4-2.5-20.5-7.6
					c-5.1-5.1-7.7-11.9-7.7-20.4C1480.7,1979.9,1480.7,1965.6,1480.7,1951.4z"/>
				<path fill="#231F20" d="M1627.4,1921.8c0,31.8,0,63.7,0,95.5c-11,0.6-21.9,1.1-32.9,1.6c0-23.4,0-46.8,0-70.2
					c-5.6,0.2-8.5,0.3-14.1,0.5c0-10.1,0-15.2,0-25.3C1596.1,1923.4,1611.7,1922.7,1627.4,1921.8z M1594.5,1886
					c11-0.5,21.9-1,32.9-1.6c0,10.5,0,15.7,0,26.2c-11,0.6-21.9,1.1-32.9,1.6C1594.5,1901.7,1594.5,1896.5,1594.5,1886z"/>
				<path fill="#231F20" d="M1675.3,1914.9c0.8,3.7,1.1,5.5,1.9,9.2c3.3-2.4,6.8-4.5,10.5-6.5c3.3-1.6,6.9-3.2,10.9-4.8
					c4-1.5,8.1-2.5,12.4-2.9c3.4-0.3,5.1-0.5,8.4-0.8c8.5-0.8,15.3,1,20.4,5.6c5.1,4.6,7.7,11.1,7.7,19.6c0,24.3,0,48.7,0,73
					c-10.9,1.2-21.9,2.3-32.8,3.3c0-22.5,0-44.9,0-67.4c0-1.9-0.6-3.4-1.9-4.5c-1.2-1.1-2.8-1.6-4.7-1.4c-2.6,0.2-3.9,0.4-6.6,0.6
					c-2.4,0.2-4.9,0.6-7.5,1.2c-2.6,0.6-5.1,1.3-7.3,1.9c-2.6,0.7-5.2,1.5-7.7,2.5c0,23.4,0,46.8,0,70.2c-11,0.8-21.9,1.6-32.9,2.3
					c0-33.1,0-66.2,0-99.3C1655.9,1916.3,1665.6,1915.7,1675.3,1914.9z"/>
				<path fill="#231F20" d="M1762.4,1934.4c0-9.3,2.7-16.9,8-22.8c5.3-5.9,12.6-9.4,22-10.6c12.5-1.6,24.9-3.3,37.4-5.1
					c9.3-1.4,16.6,0.2,21.9,4.6c5.3,4.5,7.9,11.4,7.9,20.8c0,11.5,0,23.1,0,34.6c-21.4,3.4-42.9,6.5-64.4,9.3c0,2.8,0,4.3,0,7.1
					c0,1.8,0.6,3.2,1.9,4.2c1.2,1,2.8,1.4,4.7,1.2c5.4-0.7,11.2-1.5,17.5-2.4c6.3-0.9,12.2-1.7,17.6-2.6c6.3-1.7,12.7-3.3,19-5
					c0,9.4,0,14.1,0,23.5c-7.2,2.1-14.6,3.8-22.2,4.9c-6.5,2.1-13.5,3.7-21.1,4.7c-7.6,1.1-14.9,2-22.1,2.9
					c-8.5,1.1-15.3-0.6-20.4-5.1c-5.1-4.5-7.7-11-7.7-19.4C1762.4,1964.2,1762.4,1949.3,1762.4,1934.4z M1802.7,1923
					c-5,0.7-7.5,3.5-7.5,8.5c0,4.1,0,6.2,0,10.3c10.6-1.4,21.2-2.8,31.8-4.4c0-4.1,0-6.2,0-10.3c0-5-2.5-7.1-7.5-6.4
					C1812.7,1921.7,1809.4,1922.1,1802.7,1923z"/>
			</g>
		</g>
		<path fill="#3077A1" d="M1855.3,738.3v91.6c0,28.9-159.1,52.3-355.3,52.3c-196.2,0-355.3-23.4-355.3-52.3v-91.6H1855.3z"/>
		<path fill="#6C8EB1" d="M1919,602.7v108c0,34.1-187.6,61.7-419,61.7c-231.4,0-419-27.6-419-61.7v-108H1919z"/>
		<path fill="#276184" d="M1855.3,738.3v91.6c0,28.9-159.1,52.3-355.3,52.3c-196.2,0-355.3-23.4-355.3-52.3
			C1144.7,829.9,1681,872.5,1855.3,738.3z"/>
		<path fill="#576A8F" d="M1919,602.7v108c0,34.1-187.6,61.7-419,61.7c-231.4,0-419-27.6-419-61.7
			C1081,710.7,1762.6,837.1,1919,602.7z"/>
		<ellipse fill="#8EE3E3" cx="1500" cy="602.7" rx="419" ry="61.7"/>
		<ellipse fill="#6C8EB1" stroke="#5E779D" stroke-width="6.713" stroke-miterlimit="10" cx="1500" cy="602.7" rx="268" ry="20.6"/>
		<path opacity="0.2" fill="#001936" d="M2047.6,1290.6v854c0,1.2,0,2.3,0,3.5c-1.8,145.4-120.3,262.7-266.1,262.7h-563.1
			c-117.8,0-217.8-76.6-252.8-182.8c759.2-168,888.2-561.1,1019.6-1108.5c22.2,26.4,39.4,57.2,50,90.8c7.6,23.9,11.8,49.2,12.3,75.5
			C2047.6,1287.4,2047.6,1289,2047.6,1290.6z"/>
		<path opacity="0.5" fill="#FFFFFF" d="M1250.8,1039.8c0,0-198,39-222,135c-24,96,78,51,87,15
			C1124.8,1153.9,1118.8,1090.8,1250.8,1039.8z"/>
	</g>
</g>
</svg>
